<svg width="86" height="45" viewBox="0 0 86 45" fill="none" xmlns="http://www.w3.org/2000/svg">
<path d="M0.72543 33V32.7L1.26543 32.49C1.66543 32.33 1.93543 32.13 2.07543 31.89C2.23543 31.65 2.31543 31.33 2.31543 30.93V15.27C2.31543 14.85 2.23543 14.52 2.07543 14.28C1.93543 14.04 1.66543 13.85 1.26543 13.71L0.72543 13.5V13.2H9.33543C11.7754 13.2 13.5354 13.65 14.6154 14.55C15.6954 15.43 16.2354 16.55 16.2354 17.91C16.2354 18.93 15.8354 19.86 15.0354 20.7C14.2554 21.52 12.9054 22.1 10.9854 22.44C13.1854 22.68 14.7954 23.26 15.8154 24.18C16.8354 25.08 17.3454 26.18 17.3454 27.48C17.3454 28.12 17.2054 28.77 16.9254 29.43C16.6454 30.07 16.1654 30.66 15.4854 31.2C14.8254 31.74 13.9154 32.18 12.7554 32.52C11.5954 32.84 10.1254 33 8.34543 33H0.72543ZM6.75543 22.41H8.04543C9.38543 22.41 10.3454 22.1 10.9254 21.48C11.5254 20.86 11.8254 19.78 11.8254 18.24C11.8254 16.64 11.5554 15.5 11.0154 14.82C10.4754 14.14 9.59543 13.8 8.37543 13.8H6.75543V22.41ZM6.75543 32.4H8.25543C9.75543 32.4 10.8654 32 11.5854 31.2C12.3254 30.4 12.6954 29.15 12.6954 27.45C12.6954 25.85 12.3454 24.71 11.6454 24.03C10.9454 23.35 9.79543 23.01 8.19543 23.01H6.75543V32.4ZM26.3009 18.12C27.6009 18.12 28.7109 18.39 29.6309 18.93C30.5509 19.45 31.2509 20.17 31.7309 21.09C32.2309 21.99 32.4809 23.02 32.4809 24.18C32.4809 24.4 32.4709 24.63 32.4509 24.87C32.4309 25.09 32.3909 25.29 32.3309 25.47H23.3909C23.4109 27.63 23.7909 29.19 24.5309 30.15C25.2909 31.09 26.4109 31.56 27.8909 31.56C28.8909 31.56 29.7009 31.4 30.3209 31.08C30.9409 30.76 31.5209 30.29 32.0609 29.67L32.3609 29.94C31.7409 31.04 30.9109 31.9 29.8709 32.52C28.8509 33.14 27.6209 33.45 26.1809 33.45C24.7609 33.45 23.5009 33.15 22.4009 32.55C21.3009 31.93 20.4409 31.05 19.8209 29.91C19.2009 28.77 18.8909 27.41 18.8909 25.83C18.8909 24.19 19.2509 22.8 19.9709 21.66C20.6909 20.5 21.6109 19.62 22.7309 19.02C23.8709 18.42 25.0609 18.12 26.3009 18.12ZM26.2109 18.72C25.6309 18.72 25.1309 18.9 24.7109 19.26C24.3109 19.6 23.9909 20.22 23.7509 21.12C23.5309 22 23.4109 23.25 23.3909 24.87H28.5209C28.7209 22.69 28.6409 21.12 28.2809 20.16C27.9209 19.2 27.2309 18.72 26.2109 18.72ZM33.5972 33V32.7L33.9572 32.58C34.6772 32.34 35.0372 31.84 35.0372 31.08V15.03C35.0372 14.63 34.9572 14.33 34.7972 14.13C34.6372 13.91 34.3572 13.75 33.9572 13.65L33.5672 13.56V13.26L39.0572 11.97L39.4172 12.24L39.2972 16.44V26.7C39.2972 27.44 39.2972 28.18 39.2972 28.92C39.3172 29.64 39.3272 30.36 39.3272 31.08C39.3272 31.48 39.4072 31.81 39.5672 32.07C39.7272 32.31 39.9972 32.49 40.3772 32.61L40.7672 32.7V33H33.5972ZM47.7912 33.45C46.5112 33.45 45.5112 33.13 44.7912 32.49C44.0912 31.85 43.7412 30.83 43.7412 29.43V19.17H41.6712V18.87L42.3912 18.75C43.0112 18.61 43.5412 18.41 43.9812 18.15C44.4412 17.89 44.8912 17.54 45.3312 17.1L47.7912 14.37H48.0912L48.0012 18.57H51.3612V19.17H47.9712V29.97C47.9712 30.67 48.1212 31.2 48.4212 31.56C48.7412 31.92 49.1412 32.1 49.6212 32.1C50.0412 32.1 50.4112 32 50.7312 31.8C51.0512 31.58 51.3712 31.29 51.6912 30.93L51.9912 31.23C51.5912 31.91 51.0412 32.45 50.3412 32.85C49.6412 33.25 48.7912 33.45 47.7912 33.45ZM60.4332 33.45C58.9132 33.45 57.5932 33.14 56.4732 32.52C55.3532 31.88 54.4832 30.98 53.8632 29.82C53.2632 28.66 52.9632 27.3 52.9632 25.74C52.9632 24.18 53.2832 22.83 53.9232 21.69C54.5832 20.55 55.4732 19.67 56.5932 19.05C57.7332 18.43 59.0132 18.12 60.4332 18.12C61.8532 18.12 63.1232 18.43 64.2432 19.05C65.3632 19.65 66.2432 20.52 66.8832 21.66C67.5432 22.8 67.8732 24.16 67.8732 25.74C67.8732 27.32 67.5632 28.69 66.9432 29.85C66.3432 30.99 65.4832 31.88 64.3632 32.52C63.2632 33.14 61.9532 33.45 60.4332 33.45ZM60.4332 32.85C61.1332 32.85 61.6932 32.65 62.1132 32.25C62.5332 31.85 62.8332 31.14 63.0132 30.12C63.2132 29.1 63.3132 27.66 63.3132 25.8C63.3132 23.92 63.2132 22.47 63.0132 21.45C62.8332 20.43 62.5332 19.72 62.1132 19.32C61.6932 18.92 61.1332 18.72 60.4332 18.72C59.7332 18.72 59.1632 18.92 58.7232 19.32C58.3032 19.72 57.9932 20.43 57.7932 21.45C57.6132 22.47 57.5232 23.92 57.5232 25.8C57.5232 27.66 57.6132 29.1 57.7932 30.12C57.9932 31.14 58.3032 31.85 58.7232 32.25C59.1632 32.65 59.7332 32.85 60.4332 32.85ZM69.1908 33V32.7L69.6108 32.58C70.3108 32.38 70.6608 31.89 70.6608 31.11V21.72C70.6608 21.28 70.5908 20.96 70.4508 20.76C70.3108 20.54 70.0408 20.39 69.6408 20.31L69.1908 20.19V19.89L74.3208 18.15L74.6208 18.45L74.8608 20.25C75.5608 19.63 76.3508 19.12 77.2308 18.72C78.1108 18.32 78.9808 18.12 79.8408 18.12C81.1608 18.12 82.1708 18.48 82.8708 19.2C83.5908 19.92 83.9508 21.02 83.9508 22.5V31.14C83.9508 31.92 84.3308 32.41 85.0908 32.61L85.3608 32.7V33H78.2808V32.7L78.6708 32.58C79.3708 32.36 79.7208 31.87 79.7208 31.11V21.54C79.7208 20.26 79.0808 19.62 77.8008 19.62C76.9208 19.62 75.9608 20.06 74.9208 20.94V31.14C74.9208 31.92 75.2708 32.41 75.9708 32.61L76.2408 32.7V33H69.1908Z" fill="black"/>
</svg>
